<svg xmlns="http://www.w3.org/2000/svg" width="32" height="32" viewBox="0 0 32 32"><path fill="#f38181" d="M27.938 31.754H4.307a3.934 3.934 0 0 1-3.938-3.938V4.185A3.934 3.934 0 0 1 4.307.247h23.631a3.934 3.934 0 0 1 3.938 3.938v23.631a3.934 3.934 0 0 1-3.938 3.938zM16.123 9.895a6.097 6.097 0 0 0-5.538 3.545c-.012.025-.025.049-.025.062-.062.135-.111.271-.16.406l-.074.185c-.049.135-.086.283-.123.418-.012.062-.037.135-.049.197-.025.148-.049.295-.074.455 0 .062-.025.123-.025.185a6.105 6.105 0 0 0 6.068 6.757 6.105 6.105 0 0 0 6.066-6.785l.002.027c0-.062-.025-.123-.025-.185-.025-.16-.049-.308-.074-.455-.025-.062-.037-.135-.049-.197-.037-.135-.074-.283-.123-.418l-.074-.185c-.049-.135-.098-.271-.16-.406a.201.201 0 0 0-.025-.062 6.1 6.1 0 0 0-5.538-3.545zm12.209-4.529a1.57 1.57 0 0 0-1.575-1.575h-3.151a1.57 1.57 0 0 0-1.575 1.575v3.151a1.57 1.57 0 0 0 1.575 1.575h3.151a1.57 1.57 0 0 0 1.575-1.575V5.366zm0 8.074h-2.905c.219.766.345 1.646.345 2.556 0 5.329-4.32 9.649-9.649 9.649s-9.649-4.32-9.649-9.649c0-.909.126-1.79.361-2.624l-.016.068H3.914v13.194a1.57 1.57 0 0 0 1.575 1.575h21.268a1.57 1.57 0 0 0 1.575-1.575V13.44z"/></svg>