<svg xmlns="http://www.w3.org/2000/svg" width="26" height="32" viewBox="0 0 26 32"><path fill="#f38181" d="M11.138 20.738c-.258 1.034-.517 2.105-.788 3.151-.258 1.046-.492 2.092-.874 3.04-.64 1.588-1.452 3.102-2.523 4.345-.702.812-.554.492-.763.443-.172-.037-.185-.197-.209-.418-.172-1.255-.062-2.708 0-4.111.074-1.612.418-2.942.726-4.283.603-2.535 1.169-5.022 1.772-7.582.037-.172.148-.455.111-.542-.271-.714-.455-1.354-.529-2.092a6.676 6.676 0 0 1 .172-2.4c.332-1.305 1.12-2.449 2.326-2.88.775-.258 1.625-.135 2.142.172.529.308.898.812 1.058 1.526.185.763.049 1.662-.098 2.326-.32 1.502-.751 2.634-1.145 4.074-.197.726-.418 1.465-.234 2.228a2.53 2.53 0 0 0 1.046 1.575c.517.382 1.132.591 1.994.566 1.514-.062 2.56-1.022 3.262-1.932 1.12-1.465 1.809-3.434 2.068-5.772.074-.751.135-1.625.086-2.474-.111-1.588-.603-2.855-1.391-3.84a6.565 6.565 0 0 0-3.043-2.091l-.046-.013c-1.28-.418-3.052-.554-4.615-.283-2.855.48-4.862 2.105-6.043 4.345-.628 1.169-1.034 2.523-1.034 4.197 0 1.292.32 2.289.837 3.077.16.246.394.455.554.738.234.394-.025.997-.148 1.428-.135.529-.148 1.243-.751 1.255-.258.012-.578-.172-.788-.295-1.612-.886-2.585-2.498-2.978-4.603-.246-1.268-.246-2.745 0-3.975a11.344 11.344 0 0 1 1.145-3.175 11.505 11.505 0 0 1 4.206-4.365l.053-.029C8.074 1.257 9.625.691 11.508.42c.628-.098 1.268-.135 1.969-.16a11.86 11.86 0 0 1 5.329.985 10.824 10.824 0 0 1 3.668 2.646c1.034 1.132 1.785 2.437 2.265 4.074.246.849.48 1.76.48 2.818 0 1.046-.222 1.982-.369 2.917-.591 3.471-2.24 6.326-4.726 7.938a7.823 7.823 0 0 1-2.166.997c-.812.246-1.748.418-2.757.357-.972-.074-1.772-.332-2.437-.714s-1.231-.837-1.625-1.538z"/></svg>