<svg xmlns="http://www.w3.org/2000/svg" width="38" height="32" viewBox="0 0 38 32"><path fill="#f38181" d="M25.469.873c2.967-.058 4.538 1.033 6.036 2.4 1.28-.116 2.938-.829 3.913-1.324l.96-.524c-.567 1.513-1.324 2.691-2.487 3.593-.247.204-.509.465-.829.596v.015c1.658-.015 3.025-.756 4.32-1.164v.015c-.684 1.076-1.6 2.182-2.589 2.967-.393.32-.8.64-1.193.945.015 1.76-.029 3.433-.349 4.916-1.92 8.567-6.967 14.385-14.967 16.887-2.88.887-7.52 1.265-10.807.451-1.644-.407-3.113-.873-4.495-1.469a19.02 19.02 0 0 1-2.167-1.12c-.218-.131-.451-.276-.669-.407.742.015 1.615.218 2.444.087.742-.116 1.484-.087 2.182-.233 1.731-.378 3.258-.887 4.582-1.658.64-.378 1.615-.815 2.065-1.353-.858.015-1.629-.189-2.269-.407-2.473-.873-3.913-2.487-4.844-4.887.742.073 2.909.276 3.404-.16-.945-.044-1.847-.596-2.487-1.004-1.993-1.236-3.622-3.316-3.607-6.531.262.116.524.247.785.364.495.218 1.004.335 1.6.451.262.058.756.204 1.047.087h-.044c-.378-.436-1.004-.742-1.396-1.222C2.343 9.599 1.135 7.155 1.892 4.26c.204-.742.509-1.396.829-1.993.015 0 .029.015.029.015.16.32.48.538.698.8.655.815 1.455 1.542 2.269 2.182 2.793 2.182 5.309 3.52 9.338 4.509 1.018.247 2.211.451 3.433.451-.349-1.004-.233-2.618.029-3.593.684-2.429 2.167-4.189 4.335-5.12.509-.233 1.091-.393 1.687-.524.32-.044.625-.073.931-.116z"/></svg>