<svg xmlns="http://www.w3.org/2000/svg"
	width="18px" height="18px" viewBox="0 0 18 18" id="icon">
<path fillRule="evenodd" d="M 17.32 14.98C 17.62 15.28 17.8 15.69 17.8 16.15 17.8 17.06 17.06 17.8 16.15 17.8 15.69 17.8 15.28 17.61 14.98 17.32 14.98 17.32 14.98 17.32 14.98 17.32 14.98 17.32 10.15 12.48 10.15 12.48 9.17 13.06 8.02 13.4 6.8 13.4 3.15 13.4 0.2 10.44 0.2 6.8 0.2 3.15 3.15 0.2 6.8 0.2 10.45 0.2 13.4 3.15 13.4 6.8 13.4 8.02 13.06 9.16 12.48 10.15 12.48 10.15 17.32 14.98 17.32 14.98 17.32 14.98 17.32 14.98 17.32 14.98ZM 6.8 1.85C 4.07 1.85 1.85 4.07 1.85 6.8 1.85 9.53 4.07 11.75 6.8 11.75 9.53 11.75 11.75 9.53 11.75 6.8 11.75 4.07 9.53 1.85 6.8 1.85Z" fill="rgb(255,255,255)"/></svg>