<!-- Generated by IcoMoon.io -->
<svg version="1.1" xmlns="http://www.w3.org/2000/svg" width="32" height="32" viewBox="0 0 32 32">
<title>icon-book</title>
<path fill="#95e1d3" d="M31.060 25.89l-14.47 5.99c-0.18 0.080-0.38 0.12-0.59 0.12s-0.41-0.040-0.59-0.12l-14.47-5.99c-0.55-0.22-0.94-0.76-0.94-1.39v-23c0-0.83 0.67-1.5 1.5-1.5 0.2 0 0.4 0.040 0.57 0.11h0.010c0 0.010 0 0.010 0.010 0.010l13.91 5.76 13.91-5.76s0.010 0 0.010-0.010h0.010c0.17-0.070 0.37-0.11 0.57-0.11 0.83 0 1.5 0.67 1.5 1.5v23c0 0.63-0.39 1.17-0.94 1.39zM14.5 8.5l-11.5-4.76v19.76l11.5 4.76v-19.76zM29 3.74l-11.5 4.76v19.76l11.5-4.76v-19.76zM19.88 10.63l5.5-2.5c0.19-0.080 0.4-0.13 0.62-0.13 0.83 0 1.5 0.67 1.5 1.5 0 0.61-0.36 1.13-0.88 1.37l-5.5 2.5c-0.19 0.080-0.4 0.13-0.62 0.13-0.83 0-1.5-0.67-1.5-1.5 0-0.61 0.36-1.13 0.88-1.37zM19.88 16.13l5.5-2.5c0.19-0.080 0.4-0.13 0.62-0.13 0.83 0 1.5 0.67 1.5 1.5 0 0.61-0.36 1.13-0.88 1.37l-5.5 2.5v-0.010c-0.19 0.090-0.4 0.14-0.62 0.14-0.83 0-1.5-0.67-1.5-1.5 0-0.61 0.36-1.13 0.88-1.37zM19.88 21.63l5.5-2.5c0.19-0.080 0.4-0.13 0.62-0.13 0.83 0 1.5 0.67 1.5 1.5 0 0.61-0.36 1.13-0.88 1.37l-5.5 2.5c-0.19 0.080-0.4 0.13-0.62 0.13-0.83 0-1.5-0.67-1.5-1.5 0-0.61 0.36-1.13 0.88-1.37zM6 8c0.22 0 0.43 0.050 0.62 0.13l5.5 2.5c0.52 0.24 0.88 0.76 0.88 1.37 0 0.83-0.67 1.5-1.5 1.5-0.224-0.002-0.437-0.049-0.63-0.134l0.010 0.004-5.5-2.5c-0.52-0.24-0.88-0.76-0.88-1.37 0-0.83 0.67-1.5 1.5-1.5zM6 13.5c0.22 0 0.43 0.050 0.62 0.13l5.5 2.5c0.52 0.24 0.88 0.76 0.88 1.37 0 0.83-0.67 1.5-1.5 1.5-0.22 0-0.43-0.050-0.62-0.14v0.010l-5.5-2.5c-0.52-0.24-0.88-0.76-0.88-1.37 0-0.83 0.67-1.5 1.5-1.5zM6 19c0.22 0 0.43 0.050 0.62 0.13l5.5 2.5c0.52 0.24 0.88 0.76 0.88 1.37 0 0.83-0.67 1.5-1.5 1.5-0.224-0.002-0.437-0.049-0.63-0.134l0.010 0.004-5.5-2.5c-0.52-0.24-0.88-0.76-0.88-1.37 0-0.83 0.67-1.5 1.5-1.5z"></path>
</svg>
