<!-- Generated by IcoMoon.io -->
<svg version="1.1" xmlns="http://www.w3.org/2000/svg" width="32" height="32" viewBox="0 0 32 32">
<title>icon-computer</title>
<path fill="#95e1d3" d="M30 25h-9.5v2.5l2 2v0.5h-13v-0.5l2-2v-2.5h-9.5c-0.83 0-1.5-0.67-1.5-1.5v-20c0-0.83 0.67-1.5 1.5-1.5h28c0.83 0 1.5 0.67 1.5 1.5v20c0 0.83-0.67 1.5-1.5 1.5zM29.5 4h-27v17h27v-17zM13 11c0.41 0 0.79 0.17 1.060 0.44l0.94 0.94 2.94-2.94c0.271-0.271 0.646-0.439 1.060-0.439 0.828 0 1.499 0.671 1.499 1.499 0 0.414-0.168 0.789-0.439 1.060l-4 4c-0.27 0.27-0.65 0.44-1.060 0.44s-0.79-0.17-1.060-0.44l-2-2c-0.273-0.271-0.442-0.647-0.442-1.062 0-0.827 0.671-1.498 1.498-1.498 0.001 0 0.002 0 0.004 0h-0z"></path>
</svg>
