<!-- Generated by IcoMoon.io -->
<svg version="1.1" xmlns="http://www.w3.org/2000/svg" width="32" height="32" viewBox="0 0 32 32">
<title>icon-search</title>
<path fill="#fff" d="M30.791 26.631c0.533 0.533 0.853 1.262 0.853 2.080 0 1.618-1.316 2.933-2.933 2.933-0.818 0-1.547-0.338-2.080-0.853 0 0 0 0 0 0s-8.587-8.604-8.587-8.604c-1.742 1.031-3.787 1.636-5.956 1.636-6.489 0-11.733-5.262-11.733-11.733 0-6.489 5.244-11.733 11.733-11.733s11.733 5.244 11.733 11.733c0 2.169-0.604 4.196-1.636 5.956 0 0 8.604 8.587 8.604 8.587s0 0 0 0zM12.089 3.289c-4.853 0-8.8 3.947-8.8 8.8s3.947 8.8 8.8 8.8c4.853 0 8.8-3.947 8.8-8.8s-3.947-8.8-8.8-8.8z"></path>
</svg>
