<!-- Generated by IcoMoon.io -->
<svg version="1.1" xmlns="http://www.w3.org/2000/svg" width="32" height="32" viewBox="0 0 32 32">
<title>icon-clock</title>
<path fill="#95e1d3" d="M30.74 10c-1.624-3.713-4.527-6.616-8.139-8.2l-0.101-0.040c1-0.79 2.25-1.26 3.63-1.26 3.24 0 5.87 2.63 5.87 5.87 0 1.37-0.47 2.63-1.26 3.63zM30.5 16.5c0 3.85-1.51 7.34-3.96 9.94l2.030 2.030c0.26 0.27 0.43 0.64 0.43 1.050 0 0.82-0.66 1.48-1.48 1.48-0.41 0-0.78-0.17-1.050-0.43l-2.18-2.18c-2.312 1.632-5.188 2.609-8.292 2.609-3.098 0-5.969-0.973-8.324-2.63l0.046 0.031-2.16 2.16c-0.271 0.271-0.646 0.439-1.060 0.439-0.828 0-1.499-0.671-1.499-1.499 0-0.414 0.168-0.789 0.439-1.060l2.010-2.010c-2.44-2.6-3.95-6.080-3.95-9.93 0-8.010 6.49-14.5 14.5-14.5s14.5 6.49 14.5 14.5zM16 5c-6.35 0-11.5 5.15-11.5 11.5s5.15 11.5 11.5 11.5 11.5-5.15 11.5-11.5-5.15-11.5-11.5-11.5zM22 18h-6c-0.83 0-1.5-0.67-1.5-1.5v-8c0-0.83 0.67-1.5 1.5-1.5s1.5 0.67 1.5 1.5v6.5h4.5c0.83 0 1.5 0.67 1.5 1.5s-0.67 1.5-1.5 1.5zM1.29 10.21c-0.804-1.007-1.29-2.299-1.29-3.705 0-0.002 0-0.004 0-0.005v0c0-3.31 2.69-6 6-6 1.4 0 2.69 0.48 3.71 1.29-3.8 1.651-6.769 4.62-8.38 8.317l-0.040 0.103z"></path>
</svg>
