<!-- Generated by IcoMoon.io -->
<svg version="1.1" xmlns="http://www.w3.org/2000/svg" width="32" height="32" viewBox="0 0 32 32">
<title>icon-shopping</title>
<path fill="#fff" d="M31.52 9.173c0 0 0 0 0 0s-4.409 9.778-4.409 9.778c0 0 0 0 0 0-0.213 0.48-0.676 0.836-1.244 0.871 0 0 0 0 0 0s-12.658 0.836-12.658 0.836c0 0 0.729 2.098 0.729 2.098s13.796 0 13.796 0c1.618 0 2.933 1.316 2.933 2.933s-1.316 2.933-2.933 2.933c-1.618 0-2.933-1.316-2.933-2.933 0 0-13.689 0-13.689 0 0 1.618-1.316 2.933-2.933 2.933s-2.933-1.316-2.933-2.933c0-1.618 1.316-2.933 2.933-2.933 0 0 2.649 0 2.649 0s-5.653-16.142-5.653-16.142c0 0-3.36 0-3.36 0-0.8 0-1.458-0.64-1.458-1.458s0.658-1.476 1.458-1.476c0 0 4.409 0 4.409 0 0.64 0 1.173 0.427 1.387 0.996 0 0 0 0 0 0s0.853 2.436 0.853 2.436c0 0 21.707 0 21.707 0 0.818 0 1.476 0.658 1.476 1.458 0 0.231-0.053 0.427-0.124 0.604zM9.493 10.044c0 0 2.702 7.751 2.702 7.751s12.604-0.853 12.604-0.853c0 0 3.111-6.898 3.111-6.898s-18.418 0-18.418 0z"></path>
</svg>
