<!-- Generated by IcoMoon.io -->
<svg version="1.1" xmlns="http://www.w3.org/2000/svg" width="32" height="32" viewBox="0 0 32 32">
<title>icon-home</title>
<path fill="#95e1d3" d="M32 17c0 0.83-0.67 1.5-1.5 1.5-0.4 0-0.75-0.16-1.020-0.41v0.010l-13.48-13.48-13.45 13.45c-0.27 0.262-0.638 0.424-1.045 0.424-0.828 0-1.499-0.671-1.499-1.499 0-0.421 0.174-0.802 0.454-1.075l14.46-14.46c0.27-0.28 0.66-0.46 1.080-0.46h0.090c0.020 0 0.050 0.010 0.070 0.010 0.37 0.040 0.7 0.21 0.94 0.47l5.9 5.9v-1.38c0-0.83 0.67-1.5 1.5-1.5s1.5 0.67 1.5 1.5v4.38l5.6 5.6h-0.010c0.25 0.27 0.41 0.62 0.41 1.020zM29 19.5v10.5c0 0.83-0.67 1.5-1.5 1.5h-3v-12h-6v12h-14c-0.83 0-1.5-0.67-1.5-1.5v-10.5l13-13 13 13zM13.5 19.5h-6v6h6v-6z"></path>
</svg>
