<!-- Generated by IcoMoon.io -->
<svg version="1.1" xmlns="http://www.w3.org/2000/svg" width="32" height="32" viewBox="0 0 32 32">
<title>icon-line</title>
<path fill="#95e1d3" d="M30.5 32h-29c-0.83 0-1.5-0.67-1.5-1.5v-29c0-0.83 0.67-1.5 1.5-1.5h29c0.83 0 1.5 0.67 1.5 1.5v29c0 0.83-0.67 1.5-1.5 1.5zM29 3h-26v26h26v-26zM5.22 16.24h-0.010l4-2.5h0.010c0.22-0.14 0.49-0.22 0.78-0.22 0.31 0 0.6 0.090 0.84 0.25h0.010l6.63 4.42 7.63-5.4c0.25-0.18 0.56-0.28 0.89-0.28 0.827 0 1.498 0.671 1.498 1.498 0 0.496-0.241 0.937-0.613 1.209l-0.004 0.003-8.5 6c-0.25 0.18-0.55 0.29-0.88 0.29-0.32 0-0.62-0.11-0.86-0.28l-6.66-4.43-3.13 1.95c-0.24 0.17-0.54 0.27-0.85 0.27-0.002 0-0.003 0-0.005 0-0.827 0-1.498-0.671-1.498-1.498 0-0.541 0.287-1.015 0.717-1.278l0.007-0.004z"></path>
</svg>
