<svg aria-hidden="true" style="position:absolute;width:0;height:0" xmlns="http://www.w3.org/2000/svg" overflow="hidden"><defs><symbol id="icon-book" viewBox="0 0 32 32"><path d="M31.06 25.89l-14.47 5.99c-.18.08-.38.12-.59.12s-.41-.04-.59-.12L.94 25.89C.39 25.67 0 25.13 0 24.5v-23C0 .67.67 0 1.5 0c.2 0 .4.04.57.11h.01c0 .01 0 .01.01.01L16 5.88 29.91.12s.01 0 .01-.01h.01c.17-.07.37-.11.57-.11.83 0 1.5.67 1.5 1.5v23c0 .63-.39 1.17-.94 1.39zM14.5 8.5L3 3.74V23.5l11.5 4.76V8.5zM29 3.74L17.5 8.5v19.76L29 23.5V3.74zm-9.12 6.89l5.5-2.5c.19-.08.4-.13.62-.13.83 0 1.5.67 1.5 1.5 0 .61-.36 1.13-.88 1.37l-5.5 2.5c-.19.08-.4.13-.62.13-.83 0-1.5-.67-1.5-1.5 0-.61.36-1.13.88-1.37zm0 5.5l5.5-2.5c.19-.08.4-.13.62-.13.83 0 1.5.67 1.5 1.5 0 .61-.36 1.13-.88 1.37l-5.5 2.5v-.01c-.19.09-.4.14-.62.14-.83 0-1.5-.67-1.5-1.5 0-.61.36-1.13.88-1.37zm0 5.5l5.5-2.5c.19-.08.4-.13.62-.13.83 0 1.5.67 1.5 1.5 0 .61-.36 1.13-.88 1.37l-5.5 2.5c-.19.08-.4.13-.62.13-.83 0-1.5-.67-1.5-1.5 0-.61.36-1.13.88-1.37zM6 8c.22 0 .43.05.62.13l5.5 2.5c.52.24.88.76.88 1.37 0 .83-.67 1.5-1.5 1.5a1.594 1.594 0 0 1-.63-.134l.01.004-5.5-2.5c-.52-.24-.88-.76-.88-1.37C4.5 8.67 5.17 8 6 8zm0 5.5c.22 0 .43.05.62.13l5.5 2.5c.52.24.88.76.88 1.37 0 .83-.67 1.5-1.5 1.5-.22 0-.43-.05-.62-.14v.01l-5.5-2.5c-.52-.24-.88-.76-.88-1.37 0-.83.67-1.5 1.5-1.5zM6 19c.22 0 .43.05.62.13l5.5 2.5c.52.24.88.76.88 1.37 0 .83-.67 1.5-1.5 1.5a1.594 1.594 0 0 1-.63-.134l.01.004-5.5-2.5c-.52-.24-.88-.76-.88-1.37 0-.83.67-1.5 1.5-1.5z"/></symbol><symbol id="icon-clock" viewBox="0 0 32 32"><path d="M30.74 10c-1.624-3.713-4.527-6.616-8.139-8.2l-.101-.04C23.5.97 24.75.5 26.13.5 29.37.5 32 3.13 32 6.37 32 7.74 31.53 9 30.74 10zm-.24 6.5c0 3.85-1.51 7.34-3.96 9.94l2.03 2.03c.26.27.43.64.43 1.05 0 .82-.66 1.48-1.48 1.48-.41 0-.78-.17-1.05-.43l-2.18-2.18a14.366 14.366 0 0 1-8.292 2.609c-3.098 0-5.969-.973-8.324-2.63l.046.031-2.16 2.16a1.499 1.499 0 1 1-2.12-2.12l2.01-2.01c-2.44-2.6-3.95-6.08-3.95-9.93C1.5 8.49 7.99 2 16 2s14.5 6.49 14.5 14.5zM16 5C9.65 5 4.5 10.15 4.5 16.5S9.65 28 16 28s11.5-5.15 11.5-11.5S22.35 5 16 5zm6 13h-6c-.83 0-1.5-.67-1.5-1.5v-8c0-.83.67-1.5 1.5-1.5s1.5.67 1.5 1.5V15H22c.83 0 1.5.67 1.5 1.5S22.83 18 22 18zM1.29 10.21A5.926 5.926 0 0 1 0 6.505V6.5c0-3.31 2.69-6 6-6 1.4 0 2.69.48 3.71 1.29-3.8 1.651-6.769 4.62-8.38 8.317l-.04.103z"/></symbol><symbol id="icon-computer" viewBox="0 0 32 32"><path d="M30 25h-9.5v2.5l2 2v.5h-13v-.5l2-2V25H2c-.83 0-1.5-.67-1.5-1.5v-20C.5 2.67 1.17 2 2 2h28c.83 0 1.5.67 1.5 1.5v20c0 .83-.67 1.5-1.5 1.5zm-.5-21h-27v17h27V4zM13 11c.41 0 .79.17 1.06.44l.94.94 2.94-2.94a1.499 1.499 0 1 1 2.12 2.12l-4 4c-.27.27-.65.44-1.06.44s-.79-.17-1.06-.44l-2-2A1.498 1.498 0 0 1 12.996 11H13z"/></symbol><symbol id="icon-home" viewBox="0 0 32 32"><path d="M32 17c0 .83-.67 1.5-1.5 1.5-.4 0-.75-.16-1.02-.41v.01L16 4.62 2.55 18.07a1.499 1.499 0 0 1-2.09-2.15L14.92 1.46c.27-.28.66-.46 1.08-.46h.09c.02 0 .05.01.07.01.37.04.7.21.94.47l5.9 5.9V6c0-.83.67-1.5 1.5-1.5S26 5.17 26 6v4.38l5.6 5.6h-.01c.25.27.41.62.41 1.02zm-3 2.5V30c0 .83-.67 1.5-1.5 1.5h-3v-12h-6v12h-14c-.83 0-1.5-.67-1.5-1.5V19.5l13-13 13 13zm-15.5 0h-6v6h6v-6z"/></symbol><symbol id="icon-image" viewBox="0 0 32 32"><path d="M30.5 32h-29C.67 32 0 31.33 0 30.5v-29C0 .67.67 0 1.5 0h29c.83 0 1.5.67 1.5 1.5v29c0 .83-.67 1.5-1.5 1.5zM29 3H3v26h26V3zM6.5 4.5H12c.83 0 1.5.67 1.5 1.5s-.67 1.5-1.5 1.5H7.5V12c0 .83-.67 1.5-1.5 1.5s-1.5-.67-1.5-1.5V4.5h2zM4.5 20c0-.83.67-1.5 1.5-1.5s1.5.67 1.5 1.5v4.5H12c.83 0 1.5.67 1.5 1.5s-.67 1.5-1.5 1.5H4.5V20zM20 4.5h7.5V12c0 .83-.67 1.5-1.5 1.5s-1.5-.67-1.5-1.5V7.5H20c-.83 0-1.5-.67-1.5-1.5s.67-1.5 1.5-1.5zm0 20h4.5V20c0-.83.67-1.5 1.5-1.5s1.5.67 1.5 1.5v7.5H20c-.83 0-1.5-.67-1.5-1.5s.67-1.5 1.5-1.5z"/></symbol><symbol id="icon-line" viewBox="0 0 32 32"><path d="M30.5 32h-29C.67 32 0 31.33 0 30.5v-29C0 .67.67 0 1.5 0h29c.83 0 1.5.67 1.5 1.5v29c0 .83-.67 1.5-1.5 1.5zM29 3H3v26h26V3zM5.22 16.24h-.01l4-2.5h.01c.22-.14.49-.22.78-.22.31 0 .6.09.84.25h.01l6.63 4.42 7.63-5.4c.25-.18.56-.28.89-.28a1.498 1.498 0 0 1 .885 2.707l-.004.003-8.5 6c-.25.18-.55.29-.88.29-.32 0-.62-.11-.86-.28l-6.66-4.43-3.13 1.95c-.24.17-.54.27-.85.27h-.005a1.498 1.498 0 0 1-.781-2.776l.007-.004z"/></symbol><symbol id="icon-search" viewBox="0 0 32 32"><path d="M30.791 26.631c.533.533.853 1.262.853 2.08a2.936 2.936 0 0 1-2.933 2.933 2.99 2.99 0 0 1-2.08-.853l-8.587-8.604a11.69 11.69 0 0 1-5.956 1.636C5.599 23.823.355 18.561.355 12.09.355 5.601 5.599.357 12.088.357S23.821 5.601 23.821 12.09c0 2.169-.604 4.196-1.636 5.956l8.604 8.587zM12.089 3.289c-4.853 0-8.8 3.947-8.8 8.8s3.947 8.8 8.8 8.8c4.853 0 8.8-3.947 8.8-8.8s-3.947-8.8-8.8-8.8z"/></symbol><symbol id="icon-shopping" viewBox="0 0 32 32"><path d="M31.52 9.173l-4.409 9.778a1.46 1.46 0 0 1-1.244.871l-12.658.836.729 2.098h13.796c1.618 0 2.933 1.316 2.933 2.933s-1.316 2.933-2.933 2.933a2.936 2.936 0 0 1-2.933-2.933H11.112c0 1.618-1.316 2.933-2.933 2.933s-2.933-1.316-2.933-2.933a2.936 2.936 0 0 1 2.933-2.933h2.649L5.175 6.614h-3.36c-.8 0-1.458-.64-1.458-1.458S1.015 3.68 1.815 3.68h4.409c.64 0 1.173.427 1.387.996s.853 2.436.853 2.436h21.707a1.469 1.469 0 0 1 1.352 2.062zm-22.027.871l2.702 7.751 12.604-.853 3.111-6.898H9.492z"/></symbol></defs></svg>