<svg aria-hidden="true" style="position:absolute;width:0;height:0" xmlns="http://www.w3.org/2000/svg" overflow="hidden"><defs><symbol id="instagram" viewBox="0 0 32 32"><path d="M27.938 31.754H4.307a3.934 3.934 0 0 1-3.938-3.938V4.185A3.934 3.934 0 0 1 4.307.247h23.631a3.934 3.934 0 0 1 3.938 3.938v23.631a3.934 3.934 0 0 1-3.938 3.938zM16.123 9.895a6.097 6.097 0 0 0-5.538 3.545c-.012.025-.025.049-.025.062-.062.135-.111.271-.16.406l-.074.185c-.049.135-.086.283-.123.418-.012.062-.037.135-.049.197-.025.148-.049.295-.074.455 0 .062-.025.123-.025.185a6.105 6.105 0 0 0 6.068 6.757 6.105 6.105 0 0 0 6.066-6.785l.002.027c0-.062-.025-.123-.025-.185-.025-.16-.049-.308-.074-.455-.025-.062-.037-.135-.049-.197-.037-.135-.074-.283-.123-.418l-.074-.185c-.049-.135-.098-.271-.16-.406a.201.201 0 0 0-.025-.062 6.1 6.1 0 0 0-5.538-3.545zm12.209-4.529a1.57 1.57 0 0 0-1.575-1.575h-3.151a1.57 1.57 0 0 0-1.575 1.575v3.151a1.57 1.57 0 0 0 1.575 1.575h3.151a1.57 1.57 0 0 0 1.575-1.575V5.366zm0 8.074h-2.905c.219.766.345 1.646.345 2.556 0 5.329-4.32 9.649-9.649 9.649s-9.649-4.32-9.649-9.649c0-.909.126-1.79.361-2.624l-.016.068H3.914v13.194a1.57 1.57 0 0 0 1.575 1.575h21.268a1.57 1.57 0 0 0 1.575-1.575V13.44z"/></symbol><symbol id="pinterest" viewBox="0 0 26 32"><path d="M11.138 20.738c-.258 1.034-.517 2.105-.788 3.151-.258 1.046-.492 2.092-.874 3.04-.64 1.588-1.452 3.102-2.523 4.345-.702.812-.554.492-.763.443-.172-.037-.185-.197-.209-.418-.172-1.255-.062-2.708 0-4.111.074-1.612.418-2.942.726-4.283.603-2.535 1.169-5.022 1.772-7.582.037-.172.148-.455.111-.542-.271-.714-.455-1.354-.529-2.092a6.676 6.676 0 0 1 .172-2.4c.332-1.305 1.12-2.449 2.326-2.88.775-.258 1.625-.135 2.142.172.529.308.898.812 1.058 1.526.185.763.049 1.662-.098 2.326-.32 1.502-.751 2.634-1.145 4.074-.197.726-.418 1.465-.234 2.228a2.53 2.53 0 0 0 1.046 1.575c.517.382 1.132.591 1.994.566 1.514-.062 2.56-1.022 3.262-1.932 1.12-1.465 1.809-3.434 2.068-5.772.074-.751.135-1.625.086-2.474-.111-1.588-.603-2.855-1.391-3.84a6.565 6.565 0 0 0-3.043-2.091l-.046-.013c-1.28-.418-3.052-.554-4.615-.283-2.855.48-4.862 2.105-6.043 4.345-.628 1.169-1.034 2.523-1.034 4.197 0 1.292.32 2.289.837 3.077.16.246.394.455.554.738.234.394-.025.997-.148 1.428-.135.529-.148 1.243-.751 1.255-.258.012-.578-.172-.788-.295-1.612-.886-2.585-2.498-2.978-4.603-.246-1.268-.246-2.745 0-3.975a11.344 11.344 0 0 1 1.145-3.175 11.505 11.505 0 0 1 4.206-4.365l.053-.029C8.074 1.257 9.625.691 11.508.42c.628-.098 1.268-.135 1.969-.16a11.86 11.86 0 0 1 5.329.985 10.824 10.824 0 0 1 3.668 2.646c1.034 1.132 1.785 2.437 2.265 4.074.246.849.48 1.76.48 2.818 0 1.046-.222 1.982-.369 2.917-.591 3.471-2.24 6.326-4.726 7.938a7.823 7.823 0 0 1-2.166.997c-.812.246-1.748.418-2.757.357-.972-.074-1.772-.332-2.437-.714s-1.231-.837-1.625-1.538z"/></symbol><symbol id="twitter" viewBox="0 0 38 32"><path d="M25.469.873c2.967-.058 4.538 1.033 6.036 2.4 1.28-.116 2.938-.829 3.913-1.324l.96-.524c-.567 1.513-1.324 2.691-2.487 3.593-.247.204-.509.465-.829.596v.015c1.658-.015 3.025-.756 4.32-1.164v.015c-.684 1.076-1.6 2.182-2.589 2.967-.393.32-.8.64-1.193.945.015 1.76-.029 3.433-.349 4.916-1.92 8.567-6.967 14.385-14.967 16.887-2.88.887-7.52 1.265-10.807.451-1.644-.407-3.113-.873-4.495-1.469a19.02 19.02 0 0 1-2.167-1.12c-.218-.131-.451-.276-.669-.407.742.015 1.615.218 2.444.087.742-.116 1.484-.087 2.182-.233 1.731-.378 3.258-.887 4.582-1.658.64-.378 1.615-.815 2.065-1.353-.858.015-1.629-.189-2.269-.407-2.473-.873-3.913-2.487-4.844-4.887.742.073 2.909.276 3.404-.16-.945-.044-1.847-.596-2.487-1.004-1.993-1.236-3.622-3.316-3.607-6.531.262.116.524.247.785.364.495.218 1.004.335 1.6.451.262.058.756.204 1.047.087h-.044c-.378-.436-1.004-.742-1.396-1.222C2.343 9.599 1.135 7.155 1.892 4.26c.204-.742.509-1.396.829-1.993.015 0 .029.015.029.015.16.32.48.538.698.8.655.815 1.455 1.542 2.269 2.182 2.793 2.182 5.309 3.52 9.338 4.509 1.018.247 2.211.451 3.433.451-.349-1.004-.233-2.618.029-3.593.684-2.429 2.167-4.189 4.335-5.12.509-.233 1.091-.393 1.687-.524.32-.044.625-.073.931-.116z"/></symbol><symbol id="facebook" viewBox="0 0 16 32"><path d="M14.88.246v5.071s-3.742-.369-4.677 1.058c-.505.788-.209 3.077-.246 4.726h4.948c-.418 1.92-.714 3.225-1.022 4.898H9.92v15.754H3.052V16.061H.135v-4.96h2.88c.16-3.631.209-7.225 2.006-9.046C7.052 0 8.984.246 14.879.246z"/></symbol></defs></svg>