<svg xmlns="http://www.w3.org/2000/svg" width="32" height="32" viewBox="0 0 32 32"><path fill="#fff" d="M31.52 9.173l-4.409 9.778a1.46 1.46 0 0 1-1.244.871l-12.658.836.729 2.098h13.796c1.618 0 2.933 1.316 2.933 2.933s-1.316 2.933-2.933 2.933a2.936 2.936 0 0 1-2.933-2.933H11.112c0 1.618-1.316 2.933-2.933 2.933s-2.933-1.316-2.933-2.933a2.936 2.936 0 0 1 2.933-2.933h2.649L5.175 6.614h-3.36c-.8 0-1.458-.64-1.458-1.458S1.015 3.68 1.815 3.68h4.409c.64 0 1.173.427 1.387.996s.853 2.436.853 2.436h21.707a1.469 1.469 0 0 1 1.352 2.062zm-22.027.871l2.702 7.751 12.604-.853 3.111-6.898H9.492z"/></svg>