<svg xmlns="http://www.w3.org/2000/svg" width="32" height="32" viewBox="0 0 32 32"><path fill="#95e1d3" d="M30.5 32h-29C.67 32 0 31.33 0 30.5v-29C0 .67.67 0 1.5 0h29c.83 0 1.5.67 1.5 1.5v29c0 .83-.67 1.5-1.5 1.5zM29 3H3v26h26V3zM5.22 16.24h-.01l4-2.5h.01c.22-.14.49-.22.78-.22.31 0 .6.09.84.25h.01l6.63 4.42 7.63-5.4c.25-.18.56-.28.89-.28a1.498 1.498 0 0 1 .885 2.707l-.004.003-8.5 6c-.25.18-.55.29-.88.29-.32 0-.62-.11-.86-.28l-6.66-4.43-3.13 1.95c-.24.17-.54.27-.85.27h-.005a1.498 1.498 0 0 1-.781-2.776l.007-.004z"/></svg>