<svg xmlns="http://www.w3.org/2000/svg" width="32" height="32" viewBox="0 0 32 32"><path fill="#95e1d3" d="M30.74 10c-1.624-3.713-4.527-6.616-8.139-8.2l-.101-.04C23.5.97 24.75.5 26.13.5 29.37.5 32 3.13 32 6.37 32 7.74 31.53 9 30.74 10zm-.24 6.5c0 3.85-1.51 7.34-3.96 9.94l2.03 2.03c.26.27.43.64.43 1.05 0 .82-.66 1.48-1.48 1.48-.41 0-.78-.17-1.05-.43l-2.18-2.18a14.366 14.366 0 0 1-8.292 2.609c-3.098 0-5.969-.973-8.324-2.63l.046.031-2.16 2.16a1.499 1.499 0 1 1-2.12-2.12l2.01-2.01c-2.44-2.6-3.95-6.08-3.95-9.93C1.5 8.49 7.99 2 16 2s14.5 6.49 14.5 14.5zM16 5C9.65 5 4.5 10.15 4.5 16.5S9.65 28 16 28s11.5-5.15 11.5-11.5S22.35 5 16 5zm6 13h-6c-.83 0-1.5-.67-1.5-1.5v-8c0-.83.67-1.5 1.5-1.5s1.5.67 1.5 1.5V15H22c.83 0 1.5.67 1.5 1.5S22.83 18 22 18zM1.29 10.21A5.926 5.926 0 0 1 0 6.505V6.5c0-3.31 2.69-6 6-6 1.4 0 2.69.48 3.71 1.29-3.8 1.651-6.769 4.62-8.38 8.317l-.04.103z"/></svg>