<!-- Generated by IcoMoon.io -->
<svg version="1.1" xmlns="http://www.w3.org/2000/svg" width="32" height="32" viewBox="0 0 32 32">
<title>instagram</title>
<path fill="#f38181" d="M27.938 31.754h-23.631c-2.178 0-3.938-1.76-3.938-3.938v-23.631c0-2.178 1.76-3.938 3.938-3.938h23.631c2.178 0 3.938 1.76 3.938 3.938v23.631c0 2.178-1.76 3.938-3.938 3.938zM16.123 9.895c-2.462 0-4.566 1.452-5.538 3.545-0.012 0.025-0.025 0.049-0.025 0.062-0.062 0.135-0.111 0.271-0.16 0.406l-0.074 0.185c-0.049 0.135-0.086 0.283-0.123 0.418-0.012 0.062-0.037 0.135-0.049 0.197-0.025 0.148-0.049 0.295-0.074 0.455 0 0.062-0.025 0.123-0.025 0.185-0.022 0.196-0.035 0.423-0.035 0.652 0 3.371 2.732 6.104 6.103 6.105h0c3.371-0.001 6.103-2.734 6.103-6.105 0-0.23-0.013-0.457-0.037-0.68l0.002 0.027c0-0.062-0.025-0.123-0.025-0.185-0.025-0.16-0.049-0.308-0.074-0.455-0.025-0.062-0.037-0.135-0.049-0.197-0.037-0.135-0.074-0.283-0.123-0.418l-0.074-0.185c-0.049-0.135-0.098-0.271-0.16-0.406 0-0.012-0.012-0.037-0.025-0.062-0.972-2.092-3.077-3.545-5.538-3.545zM28.332 5.366c0-0.874-0.702-1.575-1.575-1.575h-3.151c-0.874 0-1.575 0.702-1.575 1.575v3.151c0 0.874 0.702 1.575 1.575 1.575h3.151c0.874 0 1.575-0.702 1.575-1.575v-3.151zM28.332 13.44h-2.905c0.219 0.766 0.345 1.646 0.345 2.556 0 5.329-4.32 9.649-9.649 9.649s-9.649-4.32-9.649-9.649c0-0.909 0.126-1.79 0.361-2.624l-0.016 0.068h-2.905v13.194c0 0.874 0.702 1.575 1.575 1.575h21.268c0.874 0 1.575-0.702 1.575-1.575v-13.194z"></path>
</svg>
